<svg preserveAspectRatio="none" width="100%" height="100%" overflow="visible" style="display: block;" viewBox="0 0 296 187" fill="none" xmlns="http://www.w3.org/2000/svg">
<g id="Group 139">
<path id="Path 3 Copy" d="M0.694126 110.708C0.694126 110.708 40.8777 71.8968 59.0147 70.9463C77.1516 69.9958 84.3482 105.129 107.143 105.129C129.938 105.129 133.04 48.4001 157.537 48.4001C182.033 48.4001 183.85 1 207.93 1C232.01 1 243.602 59.3095 252.661 60.0368C261.721 60.7641 295.694 60.0368 295.694 60.0368" stroke="var(--stroke-0, #745EDE)" stroke-width="2"/>
<path id="Path 4" opacity="0.22" fill-rule="evenodd" clip-rule="evenodd" d="M0.694126 110.708C0.694126 110.708 40.8777 71.8968 59.0147 70.9463C77.1516 69.9958 84.3482 105.129 107.143 105.129C129.938 105.129 133.04 48.4001 157.537 48.4001C182.033 48.4001 182.419 1 206.499 1C230.579 1 243.602 59.3095 252.661 60.0368C261.721 60.7641 295.694 60.0368 295.694 60.0368V186.586H0.694126L0.694126 110.708Z" fill="url(#paint0_linear_149_614)"/>
</g>
<defs>
<linearGradient id="paint0_linear_149_614" x1="125.385" y1="42.5" x2="123.412" y2="187.001" gradientUnits="userSpaceOnUse">
<stop offset="0.0913462" stop-color="#583CE0"/>
<stop offset="1" stop-color="#9C8CF0" stop-opacity="0"/>
</linearGradient>
</defs>
</svg>
