<svg width="12" height="21" viewBox="0 0 12 21" fill="none" xmlns="http://www.w3.org/2000/svg">
<path d="M0 10.1719C0 10.0234 0.0273438 9.88672 0.0820312 9.76172C0.136719 9.62891 0.21875 9.50781 0.328125 9.39844L9.62109 0.304688C9.83203 0.101563 10.0859 0 10.3828 0C10.5859 0 10.7656 0.046875 10.9219 0.140625C11.0859 0.234375 11.2148 0.363281 11.3086 0.527344C11.4102 0.683594 11.4609 0.863281 11.4609 1.06641C11.4609 1.35547 11.3555 1.60937 11.1445 1.82812L2.61328 10.1719L11.1445 18.5156C11.3555 18.7344 11.4609 18.9883 11.4609 19.2773C11.4609 19.4805 11.4102 19.6602 11.3086 19.8164C11.2148 19.9805 11.0859 20.1094 10.9219 20.2031C10.7656 20.2969 10.5859 20.3438 10.3828 20.3438C10.0859 20.3438 9.83203 20.2383 9.62109 20.0273L0.328125 10.9453C0.21875 10.8359 0.136719 10.7188 0.0820312 10.5938C0.0273438 10.4609 0 10.3203 0 10.1719Z" fill="currentColor"/>
</svg>
