<svg width="12" height="21" viewBox="0 0 12 21" fill="none" xmlns="http://www.w3.org/2000/svg">
<path d="M12 10.1719C12 10.0234 11.9727 9.88672 11.918 9.76172C11.8633 9.62891 11.7812 9.50781 11.6719 9.39844L2.37891 0.304688C2.16797 0.101563 1.91406 0 1.61719 0C1.41406 0 1.23438 0.046875 1.07812 0.140625C0.914062 0.234375 0.785156 0.363281 0.691406 0.527344C0.589844 0.683594 0.539062 0.863281 0.539062 1.06641C0.539062 1.35547 0.644531 1.60937 0.855469 1.82812L9.38672 10.1719L0.855469 18.5156C0.644531 18.7344 0.539062 18.9883 0.539062 19.2773C0.539062 19.4805 0.589844 19.6602 0.691406 19.8164C0.785156 19.9805 0.914062 20.1094 1.07812 20.2031C1.23438 20.2969 1.41406 20.3438 1.61719 20.3438C1.91406 20.3438 2.16797 20.2383 2.37891 20.0273L11.6719 10.9453C11.7812 10.8359 11.8633 10.7188 11.918 10.5938C11.9727 10.4609 12 10.3203 12 10.1719Z" fill="currentColor"/>
</svg>

