<svg width="12" height="15" viewBox="0 0 12 15" fill="none" xmlns="http://www.w3.org/2000/svg">
<path d="M0.228516 3.1582L3.24609 0.210938C3.39062 0.0703125 3.55664 0 3.74414 0C3.94727 0 4.11133 0.0644531 4.23633 0.193359C4.36523 0.318359 4.42969 0.480469 4.42969 0.679688C4.42969 0.871094 4.36328 1.0293 4.23047 1.1543L2.98828 2.36133L2.21484 3.02344L3.39258 2.98828H10.8633C11.0586 2.98828 11.2207 3.05273 11.3496 3.18164C11.4785 3.31055 11.543 3.47266 11.543 3.66797C11.543 3.86719 11.4785 4.0332 11.3496 4.16602C11.2207 4.29492 11.0586 4.35938 10.8633 4.35938H3.39258L2.21484 4.31836L2.98828 4.98633L4.23047 6.18164C4.36328 6.31055 4.42969 6.4707 4.42969 6.66211C4.42969 6.86133 4.36523 7.02539 4.23633 7.1543C4.11133 7.2793 3.94727 7.3418 3.74414 7.3418C3.55664 7.3418 3.39062 7.27148 3.24609 7.13086L0.228516 4.18359C0.0761719 4.03906 0 3.86914 0 3.67383C0 3.47461 0.0761719 3.30273 0.228516 3.1582ZM11.3262 11.0215L8.30273 13.9688C8.16211 14.1094 7.99414 14.1797 7.79883 14.1797C7.59961 14.1797 7.43555 14.1152 7.30664 13.9863C7.18164 13.8613 7.11914 13.6992 7.11914 13.5C7.11914 13.3086 7.18359 13.1484 7.3125 13.0195L8.56641 11.8184L9.33984 11.1562L8.15625 11.1973H0.691406C0.492188 11.1973 0.326172 11.1328 0.193359 11.0039C0.0644531 10.8711 0 10.7051 0 10.5059C0 10.3066 0.0644531 10.1426 0.193359 10.0137C0.326172 9.88477 0.492188 9.82031 0.691406 9.82031H8.15625L9.33984 9.86133L8.56641 9.19336L7.3125 7.99219C7.18359 7.86719 7.11914 7.70898 7.11914 7.51758C7.11914 7.31836 7.18164 7.15625 7.30664 7.03125C7.43555 6.90234 7.59961 6.83789 7.79883 6.83789C7.99414 6.83789 8.16211 6.9082 8.30273 7.04883L11.3262 9.99609C11.4707 10.1367 11.543 10.3066 11.543 10.5059C11.5469 10.7051 11.4746 10.877 11.3262 11.0215Z" fill="currentColor"/>
</svg>
