<svg width="16" height="16" viewBox="0 0 16 16" fill="none" xmlns="http://www.w3.org/2000/svg">
<g clip-path="url(#clip0_88_1978)">
<path d="M7.34399 1.87576C7.37255 1.72284 7.45369 1.58473 7.57336 1.48534C7.69304 1.38595 7.8437 1.33154 7.99926 1.33154C8.15482 1.33154 8.30548 1.38595 8.42516 1.48534C8.54483 1.58473 8.62597 1.72284 8.65453 1.87576L9.35514 5.58075C9.4049 5.84416 9.5329 6.08645 9.72246 6.276C9.91201 6.46555 10.1543 6.59356 10.4177 6.64332L14.1227 7.34393C14.2756 7.37249 14.4137 7.45363 14.5131 7.5733C14.6125 7.69297 14.6669 7.84364 14.6669 7.9992C14.6669 8.15476 14.6125 8.30542 14.5131 8.4251C14.4137 8.54477 14.2756 8.62591 14.1227 8.65447L10.4177 9.35508C10.1543 9.40483 9.91201 9.53284 9.72246 9.72239C9.5329 9.91195 9.4049 10.1542 9.35514 10.4176L8.65453 14.1226C8.62597 14.2756 8.54483 14.4137 8.42516 14.5131C8.30548 14.6124 8.15482 14.6669 7.99926 14.6669C7.8437 14.6669 7.69304 14.6124 7.57336 14.5131C7.45369 14.4137 7.37255 14.2756 7.34399 14.1226L6.64338 10.4176C6.59362 10.1542 6.46562 9.91195 6.27606 9.72239C6.08651 9.53284 5.84422 9.40483 5.58081 9.35508L1.87582 8.65447C1.7229 8.62591 1.58479 8.54477 1.4854 8.4251C1.38601 8.30542 1.3316 8.15476 1.3316 7.9992C1.3316 7.84364 1.38601 7.69297 1.4854 7.5733C1.58479 7.45363 1.7229 7.37249 1.87582 7.34393L5.58081 6.64332C5.84422 6.59356 6.08651 6.46555 6.27606 6.276C6.46562 6.08645 6.59362 5.84416 6.64338 5.58075L7.34399 1.87576Z" stroke="currentColor" stroke-width="1.33321" stroke-linecap="round" stroke-linejoin="round"/>
<path d="M13.3321 1.33301V3.99943" stroke="currentColor" stroke-width="1.33321" stroke-linecap="round" stroke-linejoin="round"/>
<path d="M14.6653 2.6665H11.9989" stroke="currentColor" stroke-width="1.33321" stroke-linecap="round" stroke-linejoin="round"/>
<path d="M2.6664 14.6654C3.40272 14.6654 3.99961 14.0685 3.99961 13.3322C3.99961 12.5959 3.40272 11.999 2.6664 11.999C1.93009 11.999 1.33319 12.5959 1.33319 13.3322C1.33319 14.0685 1.93009 14.6654 2.6664 14.6654Z" stroke="currentColor" stroke-width="1.33321" stroke-linecap="round" stroke-linejoin="round"/>
</g>
<defs>
<clipPath id="clip0_88_1978">
<rect width="15.9985" height="15.9985" fill="white"/>
</clipPath>
</defs>
</svg>
