<svg width="17" height="20" viewBox="0 0 17 20" fill="none" xmlns="http://www.w3.org/2000/svg">
<path d="M8.06249 19.7813C7.72916 19.7813 7.45485 19.6736 7.23957 19.4583C7.03124 19.2431 6.92707 18.9653 6.92707 18.625V5.69792L7.05207 2.30208L7.73957 2.64583L4.26041 6.51042L1.90624 8.84375C1.80207 8.94792 1.68055 9.03125 1.54166 9.09375C1.40277 9.14931 1.25346 9.17708 1.09374 9.17708C0.78124 9.17708 0.520823 9.07292 0.31249 8.86458C0.104156 8.65625 -1.04113e-05 8.39236 -1.04113e-05 8.07292C-1.04113e-05 7.76042 0.118045 7.48264 0.354156 7.23958L7.21874 0.364583C7.3368 0.246527 7.46874 0.156249 7.61457 0.0937495C7.76041 0.0312495 7.90971 -5.18747e-07 8.06249 -5.18747e-07C8.22221 -5.18747e-07 8.37499 0.0312495 8.52082 0.0937495C8.6736 0.156249 8.80555 0.246527 8.91666 0.364583L15.7812 7.23958C16.0174 7.48264 16.1354 7.76042 16.1354 8.07292C16.1354 8.39236 16.0312 8.65625 15.8229 8.86458C15.6146 9.07292 15.3542 9.17708 15.0417 9.17708C14.8819 9.17708 14.7326 9.14931 14.5937 9.09375C14.4549 9.03125 14.3333 8.94792 14.2292 8.84375L11.8646 6.51042L8.38541 2.64583L9.08332 2.30208L9.20832 5.69792V18.625C9.20832 18.9653 9.10068 19.2431 8.88541 19.4583C8.67707 19.6736 8.40277 19.7813 8.06249 19.7813Z" fill="currentColor"/>
</svg>
