<svg preserveAspectRatio="none" width="100%" height="100%" overflow="visible" style="display: block;" viewBox="0 0 16 16" fill="none" xmlns="http://www.w3.org/2000/svg">
<g id="Icon" clip-path="url(#clip0_88_1985)">
<path id="Vector" d="M7.344 1.87583C7.37256 1.72291 7.4537 1.5848 7.57337 1.48541C7.69305 1.38602 7.84371 1.33161 7.99927 1.33161C8.15483 1.33161 8.3055 1.38602 8.42517 1.48541C8.54484 1.5848 8.62598 1.72291 8.65454 1.87583L9.35515 5.58082C9.40491 5.84423 9.53292 6.08652 9.72247 6.27607C9.91202 6.46563 10.1543 6.59364 10.4177 6.64339L14.1227 7.344C14.2756 7.37256 14.4137 7.4537 14.5131 7.57337C14.6125 7.69305 14.6669 7.84371 14.6669 7.99927C14.6669 8.15483 14.6125 8.3055 14.5131 8.42517C14.4137 8.54484 14.2756 8.62598 14.1227 8.65454L10.4177 9.35515C10.1543 9.40491 9.91202 9.53292 9.72247 9.72247C9.53292 9.91202 9.40491 10.1543 9.35515 10.4177L8.65454 14.1227C8.62598 14.2756 8.54484 14.4137 8.42517 14.5131C8.3055 14.6125 8.15483 14.6669 7.99927 14.6669C7.84371 14.6669 7.69305 14.6125 7.57337 14.5131C7.4537 14.4137 7.37256 14.2756 7.344 14.1227L6.64339 10.4177C6.59364 10.1543 6.46563 9.91202 6.27607 9.72247C6.08652 9.53292 5.84423 9.40491 5.58082 9.35515L1.87583 8.65454C1.72291 8.62598 1.5848 8.54484 1.48541 8.42517C1.38602 8.3055 1.33161 8.15483 1.33161 7.99927C1.33161 7.84371 1.38602 7.69305 1.48541 7.57337C1.5848 7.4537 1.72291 7.37256 1.87583 7.344L5.58082 6.64339C5.84423 6.59364 6.08652 6.46563 6.27607 6.27607C6.46563 6.08652 6.59364 5.84423 6.64339 5.58082L7.344 1.87583Z" stroke="var(--stroke-0, white)" stroke-width="1.33321" stroke-linecap="round" stroke-linejoin="round"/>
<path id="Vector_2" d="M13.3321 1.33321V3.99964" stroke="var(--stroke-0, white)" stroke-width="1.33321" stroke-linecap="round" stroke-linejoin="round"/>
<path id="Vector_3" d="M14.6653 2.66642H11.9989" stroke="var(--stroke-0, white)" stroke-width="1.33321" stroke-linecap="round" stroke-linejoin="round"/>
<path id="Vector_4" d="M2.66642 14.6653C3.40274 14.6653 3.99964 14.0684 3.99964 13.3321C3.99964 12.5958 3.40274 11.9989 2.66642 11.9989C1.93011 11.9989 1.33321 12.5958 1.33321 13.3321C1.33321 14.0684 1.93011 14.6653 2.66642 14.6653Z" stroke="var(--stroke-0, white)" stroke-width="1.33321" stroke-linecap="round" stroke-linejoin="round"/>
</g>
<defs>
<clipPath id="clip0_88_1985">
<rect width="15.9985" height="15.9985" fill="white"/>
</clipPath>
</defs>
</svg>
